<?xml version="1.0" standalone="no"?>
<!DOCTYPE svg PUBLIC "-//W3C//DTD SVG 1.1//EN" "http://www.w3.org/Graphics/SVG/1.1/DTD/svg11.dtd">

<svg width="135" height="50" viewBox="0 0 135 50" 
  xmlns="http://www.w3.org/2000/svg"
  xmlns:xlink="http://www.w3.org/1999/xlink">


<polyline points="0.0, 23.266479834134348 0.7988165680473372, 23.770003217846867 1.5976331360946745, 19.9227997354926 2.396449704142012, 20.653215304559136 3.195266272189349, 18.019187721350864 3.994082840236686, 21.834773773402677 4.792899408284024, 20.7413831266751 5.591715976331361, 17.9331233648513 6.390532544378698, 17.47180681881151 7.189349112426036, 17.61868331822744 7.988165680473372, 17.72577741285853 8.78698224852071, 17.286874176341147 9.585798816568047, 16.755518522773645 10.384615384615385, 21.348641202876586 11.183431952662723, 5.851293776233637 11.982248520710058, 0.0 12.781065088757396, 4.3688336354608115 13.579881656804734, 8.583750105012438 14.378698224852071, 7.234898674630995 15.177514792899409, 6.032576694580625 15.976331360946745, 6.685027108281254 16.775147928994084, 34.31486894623164 17.57396449704142, 33.57707958787519 18.37278106508876, 40.18564614781774 19.171597633136095, 40.29563734599192 19.970414201183434, 43.67722801314156 20.76923076923077, 42.97387320257404 21.56804733727811, 43.08369886369468 22.366863905325445, 42.66441327334359 23.16568047337278, 46.383966215592885 23.964497041420117, 46.079680197339165 24.763313609467456, 45.682333443416596 25.562130177514792, 46.18765660375688 26.36094674556213, 46.12474422713812 27.159763313609467, 46.42112406808706 27.958579881656807, 46.09785660998175 28.757396449704142, 46.380517923232986 29.55621301775148, 46.6391844883771 30.355029585798817, 45.1613400651455 31.153846153846157, 46.86845032785638 31.95266272189349, 46.266106268447984 32.751479289940825, 46.468797859567125 33.55029585798817, 46.83207790872202 34.349112426035504, 47.42892537934588 35.14792899408284, 47.45842575346451 35.94674556213018, 47.434045379377125 36.74556213017752, 47.663481146833696 37.54437869822485, 46.347016024239466 38.34319526627219, 48.980580002852 39.142011834319526, 50.0 39.94082840236687, 48.21412558905498 40.7396449704142, 47.03212353941329 41.53846153846154, 48.21804304016571 42.337278106508876, 48.34178259848493 43.13609467455622, 48.45962840663283 43.93491124260355, 48.27867968284261 44.73372781065089, 47.50756226427324 45.532544378698226, 48.824195983672396 46.33136094674556, 47.72060195960451 47.1301775147929, 48.71850979139854 47.928994082840234, 48.330846856000264 48.72781065088758, 46.37593266815737 49.52662721893491, 44.41276609659327 50.32544378698225, 45.77982982361227 51.124260355029584, 44.88362664438087 51.92307692307693, 46.54414338519317 52.72189349112426, 47.636412668320254 53.5207100591716, 47.75365830466897 54.319526627218934, 47.28928362260605 55.11834319526627, 46.55738819631503 55.91715976331361, 45.85333542671773 56.71597633136094, 45.67999360163766 57.514792899408285, 44.927541819239636 58.31360946745562, 46.06773621645595 59.11242603550296, 44.665687498653334 59.91124260355029, 43.57849099089129 60.710059171597635, 43.59110126413254 61.50887573964497, 43.55679589283192 62.307692307692314, 43.85848191907212 63.10650887573964, 43.2436658100111 63.90532544378698, 42.97133822016328 64.70414201183432, 42.08542205706593 65.50295857988165, 41.97166575906845 66.30177514792899, 42.359559155082714 67.10059171597634, 45.76914050157522 67.89940828402366, 44.17670042431248 68.69822485207101, 43.72003092020362 69.49704142011834, 46.11691886515089 70.29585798816568, 46.01185166441942 71.09467455621302, 46.02349729654718 71.89349112426036, 46.46050997873258 72.6923076923077, 45.708750574757175 73.49112426035504, 46.64585922820899 74.28994082840237, 46.29455997350597 75.0887573964497, 46.51673322184141 75.88757396449704, 45.80903885741358 76.68639053254438, 46.03167862382573 77.48520710059172, 45.77257040866361 78.28402366863905, 45.40498842198246 79.0828402366864, 45.94357787328325 79.88165680473374, 46.26230341248633 80.68047337278107, 46.00681756009495 81.4792899408284, 46.38274024343867 82.27810650887574, 46.31885823357603 83.07692307692308, 46.53917382740898 83.87573964497041, 46.800469705818514 84.67455621301775, 45.810664021966204 85.4733727810651, 46.28197717626294 86.27218934911244, 45.62775707897933 87.07100591715975, 45.483727889299445 87.8698224852071, 43.71157358830898 88.66863905325444, 45.46718394265587 89.46745562130178, 45.835152924299166 90.26627218934911, 46.168875949018485 91.06508875739645, 45.922442429693525 91.8639053254438, 46.489882328932204 92.66272189349112, 46.278284391256605 93.46153846153845, 46.363502405103304 94.2603550295858, 45.99631277418882 95.05917159763314, 45.93472033187588 95.85798816568047, 45.40936834141535 96.65680473372781, 46.41195753136678 97.45562130177515, 45.78007235647772 98.2544378698225, 46.161009069090795 99.05325443786982, 46.313361900721475 99.85207100591715, 45.17302084978181 100.6508875739645, 44.554518831117555 101.44970414201183, 44.30490924883394 102.24852071005917, 43.755045989231355 103.04733727810651, 43.39122026608068 103.84615384615385, 42.021612743310016 104.64497041420118, 33.49246578125097 105.44378698224853, 35.07721135357766 106.24260355029585, 37.00973452489887 107.0414201183432, 33.14743311697528 107.84023668639053, 31.783147712316694 108.63905325443787, 31.341622068425718 109.43786982248521, 31.75923453131062 110.23668639053254, 30.99041110176408 111.03550295857988, 31.338087601266274 111.83431952662723, 31.11441430322647 112.63313609467457, 31.113491129050296 113.43195266272188, 31.5058639751995 114.23076923076923, 30.466194097449577 115.02958579881657, 44.741393362947264 115.82840236686391, 45.19160183341156 116.62721893491124, 45.54722058784806 117.42603550295858, 45.5520129392746 118.22485207100593, 45.35022203517321 119.02366863905324, 45.79574361310384 119.82248520710058, 45.30698483811254 120.62130177514793, 45.395579274215 121.42011834319527, 45.89834912290745 122.2189349112426, 45.851977169387574 123.01775147928994, 45.98674676217019 123.81656804733728, 45.93376927851367 124.61538461538463, 44.5471143683007 125.41420118343194, 45.37332358831204 126.21301775147928, 43.87163629166578 127.01183431952663, 46.55807020314357 127.81065088757396, 46.18745321162845 128.60946745562129, 46.098844819018275 129.40828402366864, 45.123537133233896 130.20710059171597, 45.88087320318089 131.0059171597633, 45.62497867296326 131.80473372781066, 46.01639672207978 132.60355029585799, 46.27767373612008 133.40236686390534, 45.81678426922971 134.20118343195267, 46.09367459170997" fill="none" stroke="#ed5565" stroke-width="1.25"/>

</svg>