<?xml version="1.0" standalone="no"?>
<!DOCTYPE svg PUBLIC "-//W3C//DTD SVG 1.1//EN" "http://www.w3.org/Graphics/SVG/1.1/DTD/svg11.dtd">

<svg width="135" height="50" viewBox="0 0 135 50" 
  xmlns="http://www.w3.org/2000/svg"
  xmlns:xlink="http://www.w3.org/1999/xlink">


<polyline points="0.0, 49.31468630651014 0.7988165680473372, 49.767032563896315 1.5976331360946745, 49.526970942047086 2.396449704142012, 50.0 3.195266272189349, 49.862284996501074 3.994082840236686, 48.545298035860924 4.792899408284024, 46.153294456797745 5.591715976331361, 43.38043016493947 6.390532544378698, 45.20680951137714 7.189349112426036, 43.84455059862151 7.988165680473372, 43.440052633600644 8.78698224852071, 40.594568759882975 9.585798816568047, 38.98034165980661 10.384615384615385, 36.34940136927998 11.183431952662723, 36.77133522639657 11.982248520710058, 37.758744116107 12.781065088757396, 37.739819667656384 13.579881656804734, 37.81585631609282 14.378698224852071, 37.708507067095056 15.177514792899409, 37.782389233276994 15.976331360946745, 37.70960372456054 16.775147928994084, 37.701131740128005 17.57396449704142, 39.13517169881054 18.37278106508876, 38.27855974647755 19.171597633136095, 38.60162277265186 19.970414201183434, 38.53335933990788 20.76923076923077, 35.75556923101278 21.56804733727811, 29.184837431635245 22.366863905325445, 25.849518811899962 23.16568047337278, 26.221752691389312 23.964497041420117, 25.406402040281012 24.763313609467456, 24.818648349047383 25.562130177514792, 24.777292157664156 26.36094674556213, 25.427282433595394 27.159763313609467, 25.834599910281803 27.958579881656807, 25.30972287822999 28.757396449704142, 25.760410994606964 29.55621301775148, 25.31037933422604 30.355029585798817, 24.510206586092522 31.153846153846157, 24.73232975844103 31.95266272189349, 23.92056110654906 32.751479289940825, 23.87254501550001 33.55029585798817, 24.641820668757774 34.349112426035504, 24.190251800651914 35.14792899408284, 24.65735476277196 35.94674556213018, 24.997463106658827 36.74556213017752, 24.8798302525065 37.54437869822485, 22.519480903402957 38.34319526627219, 21.419024283039935 39.142011834319526, 16.47616385291346 39.94082840236687, 15.817290487080914 40.7396449704142, 14.58977082957779 41.53846153846154, 14.463298507100342 42.337278106508876, 14.587130741308213 43.13609467455622, 16.372650062124404 43.93491124260355, 19.783439370851248 44.73372781065089, 21.84403134305479 45.532544378698226, 22.41834063117455 46.33136094674556, 22.695501151944676 47.1301775147929, 22.371479246654584 47.928994082840234, 22.08102806324024 48.72781065088758, 22.52881056570341 49.52662721893491, 20.563016133600325 50.32544378698225, 20.49779158156893 51.124260355029584, 21.69308655987394 51.92307692307693, 21.178484313771246 52.72189349112426, 21.808530052086255 53.5207100591716, 21.330082481508043 54.319526627218934, 20.720925588333824 55.11834319526627, 21.239658997999555 55.91715976331361, 22.527554153895878 56.71597633136094, 22.612460741593136 57.514792899408285, 21.243229519134836 58.31360946745562, 21.21318560319569 59.11242603550296, 20.43126492294113 59.91124260355029, 22.13136276937541 60.710059171597635, 22.92735024715462 61.50887573964497, 24.913249866255 62.307692307692314, 24.290368667761967 63.10650887573964, 23.61801899426201 63.90532544378698, 24.33517137685211 64.70414201183432, 23.860281079474127 65.50295857988165, 23.098872622149536 66.30177514792899, 23.357245215813734 67.10059171597634, 23.90788919748897 67.89940828402366, 24.510443344460967 68.69822485207101, 23.880031594064253 69.49704142011834, 23.620190813076704 70.29585798816568, 24.21403703785258 71.09467455621302, 24.3693400651837 71.89349112426036, 23.657706356871895 72.6923076923077, 22.476600643167462 73.49112426035504, 22.33342475118403 74.28994082840237, 22.26178177300667 75.0887573964497, 21.64934306283778 75.88757396449704, 19.817054959762384 76.68639053254438, 20.588217334999186 77.48520710059172, 21.317565997002248 78.28402366863905, 20.45952468345463 79.0828402366864, 20.25066465096577 79.88165680473374, 20.1489252177447 80.68047337278107, 20.84906562171815 81.4792899408284, 21.438104997824205 82.27810650887574, 20.881236240348496 83.07692307692308, 20.17102062159618 83.87573964497041, 21.49380089375008 84.67455621301775, 19.89332271009112 85.4733727810651, 19.80911818797582 86.27218934911244, 19.49659163918869 87.07100591715975, 20.067751595039223 87.8698224852071, 15.844184782267048 88.66863905325444, 15.358082156128052 89.46745562130178, 15.067329631871518 90.26627218934911, 14.807653733165568 91.06508875739645, 14.845939333176172 91.8639053254438, 12.112517875986727 92.66272189349112, 12.841431326810163 93.46153846153845, 13.196166745491045 94.2603550295858, 11.490658203091861 95.05917159763314, 9.014268892831133 95.85798816568047, 7.320594631294876 96.65680473372781, 9.228899104637428 97.45562130177515, 10.057531792555856 98.2544378698225, 11.690951429955447 99.05325443786982, 10.643324400687447 99.85207100591715, 10.608089881099923 100.6508875739645, 10.280116653682711 101.44970414201183, 10.12615991841672 102.24852071005917, 8.602845598166768 103.04733727810651, 8.66674660741408 103.84615384615385, 6.146694712487181 104.64497041420118, 3.146281270588115 105.44378698224853, 4.976898684062854 106.24260355029585, 3.3510759629976983 107.0414201183432, 4.721507785484865 107.84023668639053, 5.032360298492313 108.63905325443787, 5.055706029770596 109.43786982248521, 4.849943561775824 110.23668639053254, 2.752998613042451 111.03550295857988, 3.9939258212611177 111.83431952662723, 4.646968934943745 112.63313609467457, 5.3016436573281025 113.43195266272188, 4.485116145658621 114.23076923076923, 4.017378542138495 115.02958579881657, 4.174618000434492 115.82840236686391, 3.5827776964845834 116.62721893491124, 4.249925118114673 117.42603550295858, 3.5612351141749223 118.22485207100593, 5.23627282513665 119.02366863905324, 5.594685549483069 119.82248520710058, 4.954824632054974 120.62130177514793, 5.192709758402591 121.42011834319527, 4.667592913027809 122.2189349112426, 4.544312900436622 123.01775147928994, 5.322921091201777 123.81656804733728, 7.057586847702931 124.61538461538463, 7.06747034738453 125.41420118343194, 6.162618143062962 126.21301775147928, 5.833617483937261 127.01183431952663, 5.832179872643677 127.81065088757396, 5.57894690848544 128.60946745562129, 5.797448272640823 129.40828402366864, 6.168248321189665 130.20710059171597, 7.080067911725549 131.0059171597633, 6.857127189626019 131.80473372781066, 6.698211380245643 132.60355029585799, 6.3452353790016955 133.40236686390534, 6.4225948332402165 134.20118343195267, 0.0" fill="none" stroke="#57bd0f" stroke-width="1.25"/>

</svg>